<svg width="75" height="56" viewBox="0 0 75 56" fill="none" xmlns="http://www.w3.org/2000/svg">
<path d="M46.919 6.25478L38.086 12.5243V32.6366C38.086 45.1757 38.1446 52.7343 38.2178 52.705C38.3057 52.6903 41.9092 49.9218 46.2305 46.5819C50.5518 43.2421 54.6973 40.122 55.4298 39.6679C56.1622 39.2138 56.8799 38.6864 57.0264 38.5107C57.2608 38.2177 57.2755 37.1191 57.2755 20.039V1.88955L56.9678 1.27431C56.6163 0.585838 56.1329 -9.91821e-05 55.8985 -9.91821e-05C55.8106 -9.91821e-05 51.7676 2.8124 46.919 6.25478Z" fill="#FF0000"/>
<path d="M9.05268 8.42284C7.20698 8.62792 6.63569 8.84764 6.0937 9.56542L5.78608 9.97557L5.74213 27.7295C5.71284 40.1074 5.74213 45.6445 5.85932 46.0254C5.96186 46.3623 6.21088 46.7285 6.5478 46.9775L7.07514 47.3877L11.7773 47.4756C16.4648 47.5635 16.4941 47.5635 18.9697 48.0908C24.7705 49.3213 27.6562 50.2441 31.6406 52.1484C34.1162 53.335 35.3906 53.9062 35.5371 53.9062C35.5664 53.9062 35.5957 44.7217 35.5957 33.501V13.0957L34.6875 12.9053C34.1894 12.8027 32.3437 12.2021 30.6005 11.5576C25.2392 9.60936 22.3828 8.87694 18.457 8.42284C16.2451 8.15917 11.455 8.15917 9.05268 8.42284Z" fill="#FF0000"/>
<path d="M59.8829 23.3788C59.8389 37.6756 59.8243 38.6278 59.5753 39.1844C59.1944 40.034 58.6964 40.5028 57.0997 41.5428C55.254 42.744 44.2823 51.0936 43.213 52.1043C43.0958 52.2069 43.7256 51.9725 44.6046 51.5477C47.3438 50.2586 50.962 49.1747 56.3965 48.0174C58.4473 47.578 58.6817 47.5487 63.2081 47.4754C67.8516 47.3875 67.8956 47.3875 68.3936 47.036C69.3458 46.3622 69.2872 47.4608 69.2872 27.9344V10.1512L68.9503 9.66781C68.2471 8.61312 67.3243 8.40805 62.7393 8.24691L59.9268 8.15902L59.8829 23.3788Z" fill="#FF0000"/>
<path d="M0.644531 13.3594C0.46875 13.4326 0.249023 13.667 0.161133 13.8574C0.0439453 14.1211 0 19.834 0 34.2187V54.2285L0.424805 54.6533L0.84961 55.0781L16.3623 55.0635L31.8604 55.0488L29.9561 54.1113C27.085 52.6904 23.7305 51.6504 18.3106 50.5078C16.2598 50.0684 16.0254 50.0391 11.4258 49.9658L6.66504 49.8779L5.81543 49.4531C4.83399 48.9551 4.05762 48.1494 3.60352 47.1826L3.2959 46.5088L3.25195 29.8389L3.22266 13.1836L2.08008 13.1982C1.46484 13.1982 0.805664 13.2715 0.644531 13.3594Z" fill="#FF0000"/>
<path d="M71.7481 29.8389L71.7042 46.5088L71.294 47.3437C70.8253 48.2959 69.9757 49.1162 69.0089 49.5703C68.379 49.8486 68.0128 49.8779 63.5743 49.9658C58.9454 50.0537 58.7549 50.0684 56.6163 50.5225C51.2403 51.665 47.8858 52.7197 45.0147 54.126L43.1397 55.0488L58.6378 55.0635L74.1505 55.0781L74.5753 54.6533L75.0001 54.2285V34.2187C75.0001 19.8779 74.9561 14.1211 74.8389 13.8721C74.6046 13.3594 74.1065 13.1836 72.876 13.1836H71.7774L71.7481 29.8389Z" fill="#FF0000"/>
</svg>
