<svg width="1170" height="164" viewBox="0 0 1170 164" fill="none" xmlns="http://www.w3.org/2000/svg">
<path d="M2 74.4309L7.02717 71.3797C48.6414 46.1221 100.854 46.1221 142.468 71.3797L147.495 74.4309L152.522 77.4822C194.137 102.74 246.349 102.74 287.963 77.4822L292.99 74.4309" stroke="black" stroke-opacity="0.3" stroke-width="2.46923" stroke-linecap="round" stroke-linejoin="round"/>
<path d="M2 59.2925L7.02717 56.2413C48.6414 30.9837 100.854 30.9837 142.468 56.2413L147.495 59.2925L152.522 62.3437C194.137 87.6014 246.349 87.6014 287.963 62.3437L292.99 59.2925" stroke="black" stroke-opacity="0.3" stroke-width="2.46923" stroke-linecap="round" stroke-linejoin="round"/>
<path d="M2 44.1538L7.02717 41.1026C48.6414 15.845 100.854 15.845 142.468 41.1026L147.495 44.1538L152.522 47.2051C194.137 72.4627 246.349 72.4627 287.963 47.2051L292.99 44.1538" stroke="black" stroke-opacity="0.3" stroke-width="2.46923" stroke-linecap="round" stroke-linejoin="round"/>
<path d="M2 89.5696L7.02717 86.5184C48.6414 61.2608 100.854 61.2608 142.468 86.5184L147.495 89.5696L152.522 92.6208C194.137 117.878 246.349 117.878 287.963 92.6208L292.99 89.5696" stroke="black" stroke-opacity="0.3" stroke-width="2.46923" stroke-linecap="round" stroke-linejoin="round"/>
<path d="M2 104.708L7.02717 101.657C48.6414 76.3989 100.854 76.3989 142.468 101.657L147.495 104.708L152.522 107.759C194.137 133.017 246.349 133.017 287.963 107.759L292.99 104.708" stroke="black" stroke-opacity="0.3" stroke-width="2.46923" stroke-linecap="round" stroke-linejoin="round"/>
<path d="M2 119.846L7.02717 116.795C48.6414 91.5371 100.854 91.5371 142.468 116.795L147.495 119.846L152.522 122.897C194.137 148.155 246.349 148.155 287.963 122.897L292.99 119.846" stroke="black" stroke-opacity="0.3" stroke-width="2.46923" stroke-linecap="round" stroke-linejoin="round"/>
<path d="M293.67 74.4309L298.698 71.3797C340.312 46.1221 392.524 46.1221 434.138 71.3797L439.165 74.4309L444.193 77.4822C485.807 102.74 538.019 102.74 579.633 77.4822L584.66 74.4309" stroke="black" stroke-opacity="0.3" stroke-width="2.46923" stroke-linecap="round" stroke-linejoin="round"/>
<path d="M293.67 59.2925L298.698 56.2413C340.312 30.9837 392.524 30.9837 434.138 56.2413L439.165 59.2925L444.193 62.3437C485.807 87.6014 538.019 87.6014 579.633 62.3437L584.66 59.2925" stroke="black" stroke-opacity="0.3" stroke-width="2.46923" stroke-linecap="round" stroke-linejoin="round"/>
<path d="M293.67 44.1538L298.698 41.1026C340.312 15.845 392.524 15.845 434.138 41.1026L439.165 44.1538L444.193 47.2051C485.807 72.4627 538.019 72.4627 579.633 47.2051L584.66 44.1538" stroke="black" stroke-opacity="0.3" stroke-width="2.46923" stroke-linecap="round" stroke-linejoin="round"/>
<path d="M293.67 89.5696L298.698 86.5184C340.312 61.2608 392.524 61.2608 434.138 86.5184L439.165 89.5696L444.193 92.6208C485.807 117.878 538.019 117.878 579.633 92.6208L584.66 89.5696" stroke="black" stroke-opacity="0.3" stroke-width="2.46923" stroke-linecap="round" stroke-linejoin="round"/>
<path d="M293.67 104.708L298.698 101.657C340.312 76.3989 392.524 76.3989 434.138 101.657L439.165 104.708L444.193 107.759C485.807 133.017 538.019 133.017 579.633 107.759L584.66 104.708" stroke="black" stroke-opacity="0.3" stroke-width="2.46923" stroke-linecap="round" stroke-linejoin="round"/>
<path d="M293.67 119.846L298.698 116.795C340.312 91.5371 392.524 91.5371 434.138 116.795L439.165 119.846L444.193 122.897C485.807 148.155 538.019 148.155 579.633 122.897L584.66 119.846" stroke="black" stroke-opacity="0.3" stroke-width="2.46923" stroke-linecap="round" stroke-linejoin="round"/>
<path d="M585.34 74.4309L590.367 71.3797C631.981 46.1221 684.193 46.1221 725.808 71.3797L730.835 74.4309L735.862 77.4822C777.476 102.74 829.689 102.74 871.303 77.4822L876.33 74.4309" stroke="black" stroke-opacity="0.3" stroke-width="2.46923" stroke-linecap="round" stroke-linejoin="round"/>
<path d="M585.34 59.2925L590.367 56.2413C631.981 30.9837 684.193 30.9837 725.808 56.2413L730.835 59.2925L735.862 62.3437C777.476 87.6014 829.689 87.6014 871.303 62.3437L876.33 59.2925" stroke="black" stroke-opacity="0.3" stroke-width="2.46923" stroke-linecap="round" stroke-linejoin="round"/>
<path d="M585.34 44.1538L590.367 41.1026C631.981 15.845 684.193 15.845 725.808 41.1026L730.835 44.1538L735.862 47.2051C777.476 72.4627 829.689 72.4627 871.303 47.2051L876.33 44.1538" stroke="black" stroke-opacity="0.3" stroke-width="2.46923" stroke-linecap="round" stroke-linejoin="round"/>
<path d="M585.34 89.5696L590.367 86.5184C631.981 61.2608 684.193 61.2608 725.808 86.5184L730.835 89.5696L735.862 92.6208C777.476 117.878 829.689 117.878 871.303 92.6208L876.33 89.5696" stroke="black" stroke-opacity="0.3" stroke-width="2.46923" stroke-linecap="round" stroke-linejoin="round"/>
<path d="M585.34 104.708L590.367 101.657C631.981 76.3989 684.193 76.3989 725.808 101.657L730.835 104.708L735.862 107.759C777.476 133.017 829.689 133.017 871.303 107.759L876.33 104.708" stroke="black" stroke-opacity="0.3" stroke-width="2.46923" stroke-linecap="round" stroke-linejoin="round"/>
<path d="M585.34 119.846L590.367 116.795C631.981 91.5371 684.193 91.5371 725.808 116.795L730.835 119.846L735.862 122.897C777.476 148.155 829.689 148.155 871.303 122.897L876.33 119.846" stroke="black" stroke-opacity="0.3" stroke-width="2.46923" stroke-linecap="round" stroke-linejoin="round"/>
<path d="M877.01 74.4309L882.037 71.3797C923.651 46.1221 975.863 46.1221 1017.48 71.3797L1022.5 74.4309L1027.53 77.4822C1069.15 102.74 1121.36 102.74 1162.97 77.4822L1168 74.4309" stroke="black" stroke-opacity="0.3" stroke-width="2.46923" stroke-linecap="round" stroke-linejoin="round"/>
<path d="M877.01 59.2925L882.037 56.2413C923.651 30.9837 975.863 30.9837 1017.48 56.2413L1022.5 59.2925L1027.53 62.3437C1069.15 87.6014 1121.36 87.6014 1162.97 62.3437L1168 59.2925" stroke="black" stroke-opacity="0.3" stroke-width="2.46923" stroke-linecap="round" stroke-linejoin="round"/>
<path d="M877.01 44.1538L882.037 41.1026C923.651 15.845 975.863 15.845 1017.48 41.1026L1022.5 44.1538L1027.53 47.2051C1069.15 72.4627 1121.36 72.4627 1162.97 47.2051L1168 44.1538" stroke="black" stroke-opacity="0.3" stroke-width="2.46923" stroke-linecap="round" stroke-linejoin="round"/>
<path d="M877.01 89.5696L882.037 86.5184C923.651 61.2608 975.863 61.2608 1017.48 86.5184L1022.5 89.5696L1027.53 92.6208C1069.15 117.878 1121.36 117.878 1162.97 92.6208L1168 89.5696" stroke="black" stroke-opacity="0.3" stroke-width="2.46923" stroke-linecap="round" stroke-linejoin="round"/>
<path d="M877.01 104.708L882.037 101.657C923.651 76.3989 975.863 76.3989 1017.48 101.657L1022.5 104.708L1027.53 107.759C1069.15 133.017 1121.36 133.017 1162.97 107.759L1168 104.708" stroke="black" stroke-opacity="0.3" stroke-width="2.46923" stroke-linecap="round" stroke-linejoin="round"/>
<path d="M877.01 119.846L882.037 116.795C923.651 91.5371 975.863 91.5371 1017.48 116.795L1022.5 119.846L1027.53 122.897C1069.15 148.155 1121.36 148.155 1162.97 122.897L1168 119.846" stroke="black" stroke-opacity="0.3" stroke-width="2.46923" stroke-linecap="round" stroke-linejoin="round"/>
</svg>
